<svg width="20" height="18" viewBox="0 0 20 18" fill="none" xmlns="http://www.w3.org/2000/svg">
<g clip-path="url(#clip0)">
<path d="M9.02594 0.680765L9.02622 0.68048C9.14554 0.559471 9.30017 0.5 9.45561 0.5C9.61098 0.5 9.7658 0.559434 9.88563 0.680765L17.097 7.98222C17.097 7.98227 17.097 7.98232 17.0971 7.98237C17.3385 8.22709 17.3384 8.6258 17.0967 8.87049L9.40334 16.6601L9.40325 16.6602C8.84965 17.221 8.12644 17.5 7.40248 17.5C6.67897 17.5 5.95532 17.2207 5.40163 16.6601L1.33253 12.5401C0.223114 11.4168 0.223181 9.59325 1.33249 8.47038L1.33253 8.47034L4.62281 5.13893L4.96984 4.78756L4.62279 4.43621L1.6301 1.40646C1.6301 1.40645 1.63009 1.40645 1.63008 1.40644C1.60596 1.38199 1.60554 1.33894 1.6303 1.31373C1.63033 1.3137 1.63036 1.31367 1.63038 1.31364L2.41552 0.518695L2.4158 0.518409C2.43649 0.497427 2.46801 0.497008 2.48943 0.518674C2.48944 0.518681 2.48944 0.518688 2.48945 0.518694L5.48179 3.54879L5.83753 3.90902L6.1933 3.54881L9.02594 0.680765ZM13.4174 10.6261H13.6263L13.7732 10.4774L15.4516 8.77795L15.7986 8.4266L15.4516 8.07525L9.81135 2.36447L9.45561 2.00428L9.09987 2.36447L7.05299 4.43693L6.70598 4.78828L7.05299 5.13963L9.08771 7.19979C9.32905 7.44414 9.32905 7.8432 9.08771 8.08755C8.84979 8.32846 8.4663 8.32846 8.22837 8.08755L6.19364 6.0274L5.8379 5.66721L5.48216 6.0274L2.64848 8.8965L2.19234 9.35835C2.19228 9.35841 2.19221 9.35847 2.19215 9.35853C1.99638 9.5563 1.88448 9.76998 1.81768 9.96097L1.58503 10.6261H2.28964H13.4174ZM17.7782 12.1637C17.9729 12.4701 18.2145 12.8619 18.4555 13.2825C18.7288 13.7596 18.9965 14.2654 19.1945 14.7216C19.4012 15.1981 19.5004 15.5515 19.5004 15.75C19.5004 16.7225 18.7233 17.5 17.7782 17.5C16.833 17.5 16.056 16.7225 16.056 15.75C16.056 15.5515 16.1551 15.1981 16.3619 14.7216C16.5598 14.2654 16.8276 13.7596 17.1009 13.2825C17.3419 12.8619 17.5835 12.4701 17.7782 12.1637Z" fill="black" fill-opacity="0.5413" stroke="black"/>
</g>
<defs>
<clipPath id="clip0">
<rect width="20" height="18" fill="white"/>
</clipPath>
</defs>
</svg>
